<svg width="32" height="25" viewBox="0 0 32 25" fill="none" xmlns="http://www.w3.org/2000/svg">
<path d="M29 0H3C1.34312 0 0 1.38063 0 3.08376V21.5863C0 23.2895 1.34312 24.6701 3 24.6701H29C30.6569 24.6701 32 23.2895 32 21.5863V3.08376C32 1.38063 30.6569 0 29 0ZM29 3.08376V5.70528C27.5986 6.87833 25.3645 8.70237 20.5883 12.5467C19.5357 13.3978 17.4508 15.4424 16 15.4185C14.5495 15.4426 12.4638 13.3975 11.4117 12.5467C6.63625 8.70295 4.40156 6.87852 3 5.70528V3.08376H29ZM3 21.5863V9.66232C4.43213 10.8349 6.46306 12.4802 9.55863 14.9719C10.9247 16.0773 13.317 18.5173 16 18.5025C18.6698 18.5173 21.0318 16.1127 22.4408 14.9724C25.5363 12.4808 27.5678 10.835 29 9.66239V21.5863H3Z" fill="#F2F2F2"/>
</svg>
