<svg width="32" height="33" viewBox="0 0 32 33" fill="none" xmlns="http://www.w3.org/2000/svg">
<path d="M27.2071 4.77983C24.2143 1.69607 20.2286 0 15.9929 0C7.25 0 0.135714 7.31292 0.135714 16.2999C0.135714 19.1707 0.864286 21.9755 2.25 24.4498L0 32.8935L8.40714 30.6247C10.7214 31.9243 13.3286 32.6071 15.9857 32.6071H15.9929C24.7286 32.6071 32 25.2942 32 16.3072C32 11.9532 30.2 7.86359 27.2071 4.77983ZM15.9929 29.8611C13.6214 29.8611 11.3 29.2076 9.27857 27.9741L8.8 27.6804L3.81429 29.0241L5.14286 24.024L4.82857 23.51C3.50714 21.3514 2.81429 18.8623 2.81429 16.2999C2.81429 8.83277 8.72857 2.75336 16 2.75336C19.5214 2.75336 22.8286 4.16308 25.3143 6.72554C27.8 9.288 29.3286 12.6875 29.3214 16.3072C29.3214 23.7817 23.2571 29.8611 15.9929 29.8611ZM23.2214 19.714C22.8286 19.5085 20.8786 18.5246 20.5143 18.3924C20.15 18.2529 19.8857 18.1868 19.6214 18.598C19.3571 19.0092 18.6 19.9196 18.3643 20.1986C18.1357 20.4703 17.9 20.507 17.5071 20.3014C15.1786 19.1046 13.65 18.1648 12.1143 15.4555C11.7071 14.736 12.5214 14.7874 13.2786 13.2308C13.4071 12.9591 13.3429 12.7242 13.2429 12.5186C13.1429 12.313 12.35 10.3086 12.0214 9.49358C11.7 8.70061 11.3714 8.81075 11.1286 8.79606C10.9 8.78138 10.6357 8.78138 10.3714 8.78138C10.1071 8.78138 9.67857 8.88417 9.31429 9.288C8.95 9.69916 7.92857 10.683 7.92857 12.6875C7.92857 14.6919 9.35 16.6303 9.54286 16.9019C9.74286 17.1736 12.3357 21.2853 16.3143 23.0548C18.8286 24.1708 19.8143 24.2663 21.0714 24.0754C21.8357 23.9579 23.4143 23.0915 23.7429 22.137C24.0714 21.1825 24.0714 20.3675 23.9714 20.1986C23.8786 20.0151 23.6143 19.9123 23.2214 19.714Z" fill="#F2F2F2"/>
</svg>
