<svg width="32" height="33" viewBox="0 0 32 33" fill="none" xmlns="http://www.w3.org/2000/svg">
<path d="M16.0036 8.01147C11.4632 8.01147 7.801 11.776 7.801 16.4431C7.801 21.1101 11.4632 24.8746 16.0036 24.8746C20.5439 24.8746 24.2061 21.1101 24.2061 16.4431C24.2061 11.776 20.5439 8.01147 16.0036 8.01147ZM16.0036 21.9247C13.0695 21.9247 10.6708 19.4664 10.6708 16.4431C10.6708 13.4197 13.0624 10.9614 16.0036 10.9614C18.9448 10.9614 21.3363 13.4197 21.3363 16.4431C21.3363 19.4664 18.9376 21.9247 16.0036 21.9247ZM26.4549 7.66658C26.4549 8.75997 25.5982 9.63321 24.5417 9.63321C23.478 9.63321 22.6284 8.75263 22.6284 7.66658C22.6284 6.58052 23.4851 5.69994 24.5417 5.69994C25.5982 5.69994 26.4549 6.58052 26.4549 7.66658ZM31.8876 9.66257C31.7662 7.02815 31.1808 4.69461 29.3033 2.772C27.4329 0.849396 25.1627 0.247664 22.5999 0.115577C19.9585 -0.0385255 12.0415 -0.0385255 9.40011 0.115577C6.8444 0.240326 4.57423 0.842058 2.69671 2.76466C0.819186 4.68727 0.240937 7.02082 0.112437 9.65523C-0.0374791 12.3704 -0.0374791 20.5084 0.112437 23.2235C0.233798 25.858 0.819186 28.1915 2.69671 30.1141C4.57423 32.0367 6.83726 32.6384 9.40011 32.7705C12.0415 32.9246 19.9585 32.9246 22.5999 32.7705C25.1627 32.6458 27.4329 32.0441 29.3033 30.1141C31.1737 28.1915 31.7591 25.858 31.8876 23.2235C32.0375 20.5084 32.0375 12.3777 31.8876 9.66257ZM28.4752 26.1368C27.9184 27.5751 26.8404 28.6832 25.434 29.2629C23.3281 30.1214 18.3308 29.9233 16.0036 29.9233C13.6763 29.9233 8.67195 30.1141 6.57312 29.2629C5.1739 28.6905 4.09593 27.5824 3.53196 26.1368C2.69671 23.972 2.88946 18.8353 2.88946 16.4431C2.88946 14.0508 2.70385 8.90673 3.53196 6.7493C4.08879 5.31102 5.16676 4.20295 6.57312 3.62323C8.67909 2.76466 13.6763 2.9628 16.0036 2.9628C18.3308 2.9628 23.3352 2.772 25.434 3.62323C26.8332 4.19561 27.9112 5.30368 28.4752 6.7493C29.3104 8.91407 29.1177 14.0508 29.1177 16.4431C29.1177 18.8353 29.3104 23.9794 28.4752 26.1368Z" fill="#F2F2F2"/>
</svg>
